<svg fill="none" height="94" viewBox="0 0 96 94" width="96" xmlns="http://www.w3.org/2000/svg"><path d="m38.9704 60.3997c0-2.4217 1.8628-4.2845 4.2845-4.2845h10.4318c2.4216 0 4.2845-1.8628 4.2845-4.2845v-10.0593c0-2.4216 1.8628-4.2845 4.2845-4.2845h33.7171v18.6283h-33.7171c-2.4217 0-4.2845 1.8628-4.2845 4.2845v32.972h-19.0008zm-38.00165-4.2845v-18.6283h33.71715c2.4216 0 4.2845-1.8628 4.2845-4.2844v-32.972031h19.0008v32.972031c0 2.4216-1.8629 4.2844-4.2845 4.2844h-10.4318c-2.4217 0-4.2845 1.8629-4.2845 4.2845v10.0593c0 2.4217-1.8629 4.2845-4.2845 4.2845z" fill="#C9FE6E"/></svg>