<svg fill="none" height="83" viewBox="0 0 83 83" width="83" xmlns="http://www.w3.org/2000/svg"><path d="m28.9392 17.858c1.3435 1.3435 3.4104 1.3435 4.7539 0l5.5806-5.5806c1.3434-1.3434 3.4103-1.3434 4.7538 0l5.7872 5.7873c1.3435 1.3435 1.3435 3.4104.0001 4.7538l-49.295211 49.2952 10.541111 10.5411 49.2951-49.2952c1.3435-1.3434 3.4104-1.3434 4.7539 0l5.7873 5.7873c1.3434 1.3435 1.3434 3.4104 0 4.7538l-5.5806 5.5806c-1.3435 1.3435-1.3435 3.4104 0 4.7539l5.7872 5.7872c1.3435 1.3435 1.3435 3.4104 0 4.7539l-5.5805 5.5805c-1.3435 1.3435-1.3435 3.4104 0 4.7539l5.7872 5.7872c1.3435 1.3435 3.4104 1.3435 4.7539 0l5.5805-5.5806c1.3435-1.3434 1.3435-3.4103 0-4.7538l-5.7872-5.7872c-1.3435-1.3435-1.3435-3.4104 0-4.7539l5.5806-5.5806c1.3434-1.3434 1.3434-3.4103-.0001-4.7538l-5.7872-5.7873c-1.3435-1.3434-1.3435-3.4103 0-4.7538l5.5806-5.5806c1.3434-1.3435 1.3434-3.4103 0-4.7538l-5.7873-5.7873c-1.3435-1.3435-1.3435-3.4103 0-4.7538l5.5806-5.5806c1.3435-1.3435 1.3435-3.41035 0-4.75382l-5.7873-5.78728c-1.3435-1.343473-3.4103-1.343472-4.7538 0l-5.5806 5.58059c-1.3435 1.34347-3.4104 1.34346-4.7538-.00001l-5.7873-5.78726c-1.3435-1.34348-3.4104-1.343486-4.7538-.00001l-5.5806 5.58058c-1.3435 1.34348-3.4104 1.34348-4.7539.00001l-5.7872-5.78727c-1.3435-1.343477-3.4104-1.343476-4.7539 0l-5.5805 5.58058c-1.3435 1.34347-3.4104 1.34347-4.7539 0l-5.7872-5.78728c-1.3435-1.34347-3.41039-1.343472-4.75387 0l-5.58058 5.58058c-1.343475 1.34348-1.343473 3.41039 0 4.75379l5.78727 5.7873c1.34348 1.3435 3.41038 1.3435 4.75388 0l5.5805-5.5806c1.3435-1.3434 3.4104-1.3434 4.7539 0zm31.21-5.3739c1.3434-1.3435 3.4103-1.3435 4.7538 0l5.7873 5.7873c1.3434 1.3435 1.3434 3.4103 0 4.7538l-5.5806 5.5806c-1.3435 1.3435-3.4104 1.3435-4.7539 0l-5.7872-5.7873c-1.3435-1.3434-1.3435-3.4103 0-4.7538z" fill="#C9FE6E"/></svg>