<svg fill="none" height="93" viewBox="0 0 93 93" width="93" xmlns="http://www.w3.org/2000/svg"><g fill="#C9FE6E"><path d="m.0703128 69.4949c.0000001-1.7111 1.3162372-3.0274 3.0273372-3.0274h7.37095c1.7111 0 3.0273-1.3162 3.0273-3.0273v-33.4324c0-1.7111 1.3162-3.0273 3.0274-3.0273h7.3709c1.7111 0 3.0273-1.3163 3.0273-3.0274v-23.297338h13.4256v23.297338c0 1.7111-1.3162 3.0274-3.0273 3.0274h-7.3709c-1.7111 0-3.0274 1.3162-3.0274 3.0273v33.4324c0 1.7111-1.3162 3.0273-3.0273 3.0273h-7.3709c-1.7112 0-3.0274 1.3163-3.0274 3.0274v23.2973h-13.4255875z"/><path d="m26.1585 69.4949c0-1.7111 1.3162-3.0274 3.0274-3.0274h7.3709c1.7111 0 3.0273-1.3162 3.0273-3.0273v-33.4324c0-1.7111 1.3162-3.0273 3.0274-3.0273h7.3709c1.7111 0 3.0273-1.3163 3.0273-3.0274v-23.297338h13.4256v23.297338c0 1.7111-1.3162 3.0274-3.0273 3.0274h-7.3709c-1.7112 0-3.0274 1.3162-3.0274 3.0273v33.4324c0 1.7111-1.3162 3.0273-3.0273 3.0273h-7.3709c-1.7112 0-3.0274 1.3163-3.0274 3.0274v23.2973h-13.4256z"/><path d="m52.2467 69.4949c0-1.7111 1.3162-3.0274 3.0273-3.0274h7.371c1.7111 0 3.0273-1.3162 3.0273-3.0273v-33.4324c0-1.7111 1.3162-3.0273 3.0274-3.0273h7.3709c1.7111 0 3.0273-1.3163 3.0273-3.0274v-23.297338h13.4256v23.297338c0 1.7111-1.3162 3.0274-3.0273 3.0274h-7.3709c-1.7112 0-3.0274 1.3162-3.0274 3.0273v33.4324c0 1.7111-1.3162 3.0273-3.0273 3.0273h-7.3709c-1.7112 0-3.0274 1.3163-3.0274 3.0274v23.2973h-13.4256z"/></g></svg>