<svg fill="none" height="159" viewBox="0 0 162 159" width="162" xmlns="http://www.w3.org/2000/svg"><path d="m64.7178 102.315c0-4.1157 3.1655-7.2812 7.2807-7.2812h17.7271c4.1152 0 7.2807-3.1656 7.2807-7.2808v-17.0939c0-4.1152 3.1657-7.2808 7.2807-7.2808h57.296v31.6555h-57.296c-4.115 0-7.2807 3.1655-7.2807 7.2812v56.03h-32.2885zm-64.577175-7.2812v-31.6555h57.296375c4.1152 0 7.2808-3.1655 7.2808-7.2807v-56.0302172h32.2885v56.0302172c0 4.1152-3.1655 7.2807-7.2807 7.2807h-17.7271c-4.1152 0-7.2807 3.1656-7.2807 7.2808v17.0939c0 4.1152-3.1656 7.2808-7.2808 7.2808z" fill="#C9FE6E"/></svg>