<svg fill="none" height="177" viewBox="0 0 104 177" width="104" xmlns="http://www.w3.org/2000/svg"><g fill="#f1f1f1"><path d="m53.9984 122v-43.2c0-3.2 2.2-5.6001 5.4-5.6001h44.3996v-24.4999h-44.2996c-3.2 0-5.6 2.5-5.6 5.7v13.1999c0 3.2-2.5 5.6-5.6 5.6h-13.8c-3.2 0-5.6 2.4001-5.6 5.6001v43.2 22.3c0 11.6 2.2 20 6.5 25.2 4.5 5 12.5 7.5 23.9 7.5h41.4996v-22.1h-33.9996c-5.2 0-8.6-1-10.3-3-1.7-2.2-2.5-6.3-2.5-12.3z"/><path d="m34.5 48.8h13.7c3.2 0 5.6-2.4 5.6-5.6v-43.2h-25v43.2c0 3.2-2.5 5.5-5.6 5.5h-23.2v24.5h23.2c3.2 0 5.6-2.4 5.6-5.6v-13.2c0-3.2 2.5-5.6 5.7-5.6z"/></g></svg>