<svg fill="none" height="19" viewBox="0 0 18 19" width="18" xmlns="http://www.w3.org/2000/svg"><g stroke="#777" stroke-linecap="round" stroke-linejoin="round" stroke-width="1.3"><path d="m5.8 1.5h-3.37778c-.49782 0-.74673 0-.93688.09688-.16725.08522-.30324.22121-.38846.38846-.09688.19015-.09688.43906-.09688.93688v3.37778c0 .49782 0 .74674.09688.93688.08522.16726.22121.30324.38846.38846.19015.09688.43906.09688.93688.09688h3.37778c.49782 0 .74674 0 .93688-.09688.16726-.08522.30324-.2212.38846-.38846.09688-.19014.09688-.43906.09688-.93688v-3.37778c0-.49782 0-.74673-.09688-.93688-.08522-.16725-.2212-.30324-.38846-.38846-.19014-.09688-.43906-.09688-.93688-.09688z"/><path d="m15.5778 1.5h-3.3778c-.4978 0-.7467 0-.9369.09688-.1672.08522-.3032.22121-.3884.38846-.0969.19015-.0969.43906-.0969.93688v3.37778c0 .49782 0 .74674.0969.93688.0852.16726.2212.30324.3884.38846.1902.09688.4391.09688.9369.09688h3.3778c.4978 0 .7467 0 .9369-.09688.1672-.08522.3032-.2212.3884-.38846.0969-.19014.0969-.43906.0969-.93688v-3.37778c0-.49782 0-.74673-.0969-.93688-.0852-.16725-.2212-.30324-.3884-.38846-.1902-.09688-.4391-.09688-.9369-.09688z"/><path d="m15.5778 11.2778h-3.3778c-.4978 0-.7467 0-.9369.0969-.1672.0852-.3032.2212-.3884.3884-.0969.1902-.0969.4391-.0969.9369v3.3778c0 .4978 0 .7467.0969.9369.0852.1672.2212.3032.3884.3884.1902.0969.4391.0969.9369.0969h3.3778c.4978 0 .7467 0 .9369-.0969.1672-.0852.3032-.2212.3884-.3884.0969-.1902.0969-.4391.0969-.9369v-3.3778c0-.4978 0-.7467-.0969-.9369-.0852-.1672-.2212-.3032-.3884-.3884-.1902-.0969-.4391-.0969-.9369-.0969z"/><path d="m5.8 11.2778h-3.37778c-.49782 0-.74673 0-.93688.0969-.16725.0852-.30324.2212-.38846.3884-.09688.1902-.09688.4391-.09688.9369v3.3778c0 .4978 0 .7467.09688.9369.08522.1672.22121.3032.38846.3884.19015.0969.43906.0969.93688.0969h3.37778c.49782 0 .74674 0 .93688-.0969.16726-.0852.30324-.2212.38846-.3884.09688-.1902.09688-.4391.09688-.9369v-3.3778c0-.4978 0-.7467-.09688-.9369-.08522-.1672-.2212-.3032-.38846-.3884-.19014-.0969-.43906-.0969-.93688-.0969z"/></g></svg>