<svg fill="none" height="16" viewBox="0 0 16 16" width="16" xmlns="http://www.w3.org/2000/svg"><path d="m12.227 6.6703-2.89729-2.89729m-8.32971 11.22699 2.45137-.2724c.2995-.0333.44925-.0499.58922-.0952.12418-.0402.24236-.097.35132-.1689.12282-.0809.22936-.1875.44245-.4006l9.56564-9.56556c.8-.80007.8-2.09723 0-2.89729-.8001-.800065-2.0973-.800066-2.8973 0l-9.56563 9.56555c-.21308.2131-.31962.3197-.40061.4425-.07186.109-.12866.2271-.16886.3513-.04531.14-.06195.2897-.09523.5892z" stroke="#777" stroke-linecap="round" stroke-linejoin="round"/></svg>