<svg fill="none" height="14" viewBox="0 0 14 14" width="14" xmlns="http://www.w3.org/2000/svg"><path d="m4 1h4.73333c1.49347 0 2.24017 0 2.81067.29065.5017.25566.9097.66361 1.1654 1.16538.2906.57043.2906 1.31716.2906 2.81064v4.73333m-9.86667 3h5.4c.74674 0 1.12011 0 1.40532-.1453.25085-.1279.45485-.3318.58265-.5827.1454-.2852.1454-.6586.1454-1.4053v-5.40003c0-.74674 0-1.12011-.1454-1.40532-.1278-.25089-.3318-.45486-.58265-.58269-.28521-.14533-.65858-.14533-1.40532-.14533h-5.4c-.74673 0-1.1201 0-1.40532.14533-.25088.12783-.45485.3318-.58269.58269-.14532.28521-.14532.65858-.14532 1.40532v5.40003c0 .7467 0 1.1201.14532 1.4053.12784.2509.33181.4548.58269.5827.28522.1453.65859.1453 1.40532.1453z" stroke="#fff" stroke-linecap="round" stroke-linejoin="round" stroke-width="1.16667"/></svg>