<svg fill="none" height="10" viewBox="0 0 11 10" width="11" xmlns="http://www.w3.org/2000/svg"><path d="m5.5 7v-2m0-2h.005m-2.105 6.5h4.2c.84008 0 1.26012 0 1.58099-.16349.28224-.14381.51171-.37328.65552-.65552.16349-.32087.16349-.74091.16349-1.58099v-4.2c0-.84008 0-1.26012-.16349-1.58099-.14381-.28224-.37328-.51171-.65552-.65552-.32087-.16349-.74091-.16349-1.58099-.16349h-4.2c-.84008 0-1.26012 0-1.58099.16349-.28224.14381-.51171.37328-.65552.65552-.16349.32087-.16349.74091-.16349 1.58099v4.2c0 .84008 0 1.26012.16349 1.58099.14381.28224.37328.51171.65552.65552.32087.16349.74091.16349 1.58099.16349z" stroke="#f1f1f1" stroke-linecap="round" stroke-linejoin="round"/></svg>