<svg fill="none" height="18" viewBox="0 0 16 18" width="16" xmlns="http://www.w3.org/2000/svg"><path d="m12.5556 7.22222v-1.77778c0-2.45459-1.9899-4.44444-4.44449-4.44444-2.4546 0-4.44444 1.98985-4.44444 4.44444v1.77778m4.44444 3.99998v1.7778m-2.84444 4h5.68893c1.4934 0 2.2402 0 2.8106-.2906.5018-.2557.9097-.6637 1.1654-1.1654.2906-.5705.2906-1.3172.2906-2.8107v-1.2444c0-1.49348 0-2.24022-.2906-2.81065-.2557-.50177-.6636-.90972-1.1654-1.16538-.5704-.29065-1.3172-.29065-2.8106-.29065h-5.68893c-1.49348 0-2.24021 0-2.81064.29065-.50177.25566-.90972.66361-1.16538 1.16538-.29065.57043-.29065 1.31717-.29065 2.81065v1.2444c0 1.4935 0 2.2402.29065 2.8107.25566.5017.66361.9097 1.16538 1.1654.57043.2906 1.31716.2906 2.81064.2906z" stroke="#f1f1f1" stroke-linecap="round" stroke-linejoin="round" stroke-width="1.33333"/></svg>