<svg fill="none" height="19" viewBox="0 0 19 19" width="19" xmlns="http://www.w3.org/2000/svg"><path d="m1 9.5 8.19589 4.1223c.11151.0561.16726.0841.22574.0951.05179.0098.10495.0098.15674 0 .05848-.011.11423-.039.22574-.0951l8.19589-4.1223m-17 4.2752 8.19589 4.1223c.11151.0561.16726.0841.22574.0952.05179.0097.10495.0097.15674 0 .05848-.0111.11423-.0391.22574-.0952l8.19589-4.1223m-17-8.55043 8.19589-4.12228c.11151-.05608.16726-.08412.22574-.09516.05179-.009774.10495-.009774.15674 0 .05848.01104.11423.03908.22574.09516l8.19589 4.12228-8.19589 4.12227c-.11151.05609-.16726.08413-.22574.09517-.05179.00977-.10495.00977-.15674 0-.05848-.01104-.11423-.03908-.22574-.09517z" stroke="#f1f1f1" stroke-linecap="round" stroke-linejoin="round" stroke-width="1.5"/></svg>