<svg fill="none" height="13" viewBox="0 0 17 13" width="17" xmlns="http://www.w3.org/2000/svg"><g opacity=".4" stroke="#0d0d0d" stroke-linecap="round" stroke-linejoin="round"><path d="m1.31509 7.03488c-.10214-.16173-.15321-.24259-.1818-.36732-.02147-.09369-.02147-.24143 0-.33512.02859-.12473.07966-.20559.1818-.36732.84406-1.33649 3.35646-4.71512 7.18521-4.71512 3.8288 0 6.3412 3.37863 7.1852 4.71512.1022.16173.1532.24259.1818.36732.0215.09369.0215.24143 0 .33512-.0286.12473-.0796.20559-.1818.36732-.844 1.33649-3.3564 4.71512-7.1852 4.71512-3.82875 0-6.34115-3.37863-7.18521-4.71512z"/><path d="m8.5003 8.75c1.24264 0 2.25-1.00736 2.25-2.25s-1.00736-2.25-2.25-2.25-2.25 1.00736-2.25 2.25 1.00736 2.25 2.25 2.25z"/></g></svg>